<svg width="181" height="182" viewBox="0 0 181 182" fill="none" xmlns="http://www.w3.org/2000/svg">
<path d="M84.7681 52.8921C87.7346 51.1406 91.5596 52.1258 93.311 55.0923C95.0624 58.0588 94.0773 61.8838 91.1108 63.6353L66.7798 78.0005V138.001L117.558 167.893L168.242 138.005V77.895L145.796 63.855C142.876 62.0281 141.989 58.1799 143.816 55.2593C145.643 52.3386 149.491 51.4519 152.412 53.2788L177.788 69.1509C179.61 70.291 180.717 72.2892 180.717 74.439V141.568C180.717 143.776 179.55 145.819 177.648 146.941L120.73 180.505C118.776 181.657 116.351 181.659 114.397 180.508L57.3774 146.944C55.4732 145.823 54.3042 143.778 54.3042 141.568V74.439C54.3043 72.2322 55.4704 70.1898 57.3706 69.0679L84.7681 52.8921ZM60.022 1.63721C61.9795 0.479012 64.4122 0.478464 66.3706 1.63525L123.188 35.1997C125.087 36.3218 126.253 38.3637 126.253 40.5698V107.598C126.253 109.811 125.081 111.858 123.173 112.978L93.5513 130.367C90.5804 132.111 86.7581 131.116 85.0142 128.145C83.2702 125.174 84.265 121.352 87.2358 119.608L113.778 104.027V44.1304L63.2007 14.2524L12.7202 44.1274V104.364L34.7437 119.889C37.5594 121.874 38.2334 125.766 36.2485 128.582C34.2636 131.397 30.3718 132.07 27.5562 130.085L2.88818 112.697C1.23052 111.528 0.244629 109.626 0.244629 107.598V40.5698C0.244792 38.3656 1.40836 36.3254 3.30518 35.2026L60.022 1.63721Z" fill="url(#paint0_linear_11_21)"/>
<defs>
<linearGradient id="paint0_linear_11_21" x1="0.244822" y1="33.4302" x2="117.905" y2="53.3668" gradientUnits="userSpaceOnUse">
<stop stop-color="#86D99C"/>
<stop offset="1" stop-color="#00B1B8"/>
</linearGradient>
</defs>
</svg>
