<svg width="180" height="147" viewBox="0 0 180 147" fill="none" xmlns="http://www.w3.org/2000/svg">
<path d="M123.919 68.1616C126.072 67.98 128.166 68.9255 129.453 70.6606L178.395 136.636C179.803 138.534 180.018 141.064 178.95 143.171C177.882 145.279 175.715 146.603 173.352 146.59L91.1268 146.158C88.9641 146.146 86.9614 145.016 85.8348 143.169C84.7083 141.323 84.6192 139.025 85.5985 137.096L118.882 71.5532C119.86 69.6268 121.766 68.3434 123.919 68.1616ZM72.952 0.265137C75.126 0.100849 77.2279 1.08354 78.496 2.85693L115.099 54.0454C116.451 55.9371 116.64 58.425 115.587 60.4985L74.6034 141.202C73.5466 143.283 71.416 144.601 69.0819 144.616L6.2782 145.023C4.10232 145.037 2.0767 143.916 0.932495 142.065C-0.211705 140.214 -0.309577 137.901 0.675659 135.96L67.8602 3.66064C68.8474 1.71678 70.7781 0.429446 72.952 0.265137ZM101.296 133.736L160.943 134.049L125.44 86.1909L101.296 133.736ZM16.4344 132.481L65.201 132.165L102.75 58.2241L74.328 18.4771L16.4344 132.481Z" fill="url(#paint0_linear_11_35)"/>
<defs>
<linearGradient id="paint0_linear_11_35" x1="6.96208e-05" y1="26.7139" x2="115.467" y2="50.7455" gradientUnits="userSpaceOnUse">
<stop stop-color="#86D99C"/>
<stop offset="1" stop-color="#00B1B8"/>
</linearGradient>
</defs>
</svg>
