<svg width="146" height="183" viewBox="0 0 146 183" fill="none" xmlns="http://www.w3.org/2000/svg">
<path d="M71.0466 1.26172C72.436 0.736694 73.9676 0.725444 75.365 1.22852L141.113 24.8975C143.545 25.773 145.186 28.0581 145.237 30.6426C145.244 31.0112 145.217 31.3748 145.162 31.7305V93.8281C145.205 94.1044 145.231 94.3859 145.237 94.6709C145.244 95.0385 145.217 95.4011 145.162 95.7559V149.839H145.129C144.899 152.06 143.481 154.085 141.267 154.982L75.5193 181.645C74.0606 182.236 72.4322 182.254 70.9607 181.695L4.57788 156.484C2.60711 155.736 1.23783 154.096 0.750732 152.198H0.621826V151.563C0.53343 150.968 0.53092 150.356 0.621826 149.743V33.2148C0.568871 32.8874 0.540581 32.553 0.540771 32.2139C0.542323 29.6209 2.14842 27.2994 4.57397 26.3828L71.0466 1.26172ZM75.5964 127.235C74.1378 127.827 72.5093 127.845 71.0378 127.286L13.0974 105.281V146.374L73.1003 169.163L132.686 145V104.084L75.5964 127.235ZM24.4763 96.2588L67.0427 112.424L67.1013 80.1494L24.4763 96.2588ZM79.5193 112.182L121.557 95.1357L79.5769 80.001L79.5193 112.182ZM75.5964 63.209C74.1386 63.8002 72.5107 63.8186 71.0398 63.2607L13.0974 41.2852V87.2217L71.1375 65.2891C72.5275 64.7637 74.0598 64.752 75.4578 65.2559L132.686 85.8857V40.0576L75.5964 63.209ZM24.3962 32.2275L73.1755 50.7285L121.548 31.1133L73.3044 13.7451L24.3962 32.2275Z" fill="url(#paint0_linear_11_26)"/>
<defs>
<linearGradient id="paint0_linear_11_26" x1="0.540926" y1="33.6372" x2="95.8393" y2="46.5382" gradientUnits="userSpaceOnUse">
<stop stop-color="#86D99C"/>
<stop offset="1" stop-color="#00B1B8"/>
</linearGradient>
</defs>
</svg>
