<svg width="79" height="94" viewBox="0 0 79 94" fill="none" xmlns="http://www.w3.org/2000/svg">
<path fill-rule="evenodd" clip-rule="evenodd" d="M39.4999 0C39.9664 0 40.4026 0.213411 40.6933 0.571289C49.7868 11.8328 60.1039 14.4144 77.1513 15.4424C77.9313 15.4881 78.5437 16.1119 78.5897 16.8809H78.5819C79.3697 31.2188 79.3776 44.9404 75.5995 56.1641C70.2385 72.1091 56.6698 88.3856 39.9823 93.9238C39.8217 93.9771 39.6605 94 39.4999 94C39.3394 94 39.1713 93.9771 39.0185 93.9238C22.3334 88.3866 8.76182 72.1075 3.40127 56.1641C-0.376888 44.9404 -0.369883 31.2188 0.41787 16.8809C0.463891 16.1043 1.08398 15.4881 1.85635 15.4424C18.9037 14.4144 29.2207 11.8327 38.3065 0.571289C38.5971 0.205836 39.0334 4.34633e-05 39.4999 0ZM40.0966 26.666C39.8213 26.666 39.6224 26.6807 39.5077 26.6807C39.393 26.6654 39.1941 26.666 38.9188 26.666C37.3281 26.666 33.229 26.9247 29.4892 29.2773C23.5544 33.0159 22.3076 39.6251 22.3075 44.5059C22.3075 62.5749 38.0015 73.8062 38.6669 74.2783C38.9192 74.4534 39.2172 74.5449 39.5077 74.5449C39.7983 74.5449 40.0962 74.4534 40.3485 74.2783V74.2715C41.0139 73.7994 56.7077 62.5602 56.7079 44.499C56.7079 27.5265 42.8728 26.666 40.0966 26.666Z" fill="url(#paint0_linear_10_92)"/>
<defs>
<linearGradient id="paint0_linear_10_92" x1="-2.72367e-07" y1="17" x2="131" y2="71" gradientUnits="userSpaceOnUse">
<stop stop-color="#86D99C"/>
<stop offset="1" stop-color="#00B1B8"/>
</linearGradient>
</defs>
</svg>
