<svg width="231" height="94" viewBox="0 0 231 94" fill="none" xmlns="http://www.w3.org/2000/svg">
<path d="M39.4999 0C39.9664 0 40.4026 0.213425 40.6932 0.571289C49.7867 11.8328 60.1039 14.4144 77.1512 15.4424C77.9313 15.4881 78.5437 16.1119 78.5897 16.8809H78.5819C79.3697 31.2188 79.3776 44.9404 75.5995 56.1641C70.2385 72.1091 56.6697 88.3856 39.9823 93.9238C39.8217 93.9771 39.6605 94 39.4999 94C39.3394 94 39.1713 93.9771 39.0184 93.9238C22.3334 88.3866 8.76179 72.1075 3.40125 56.1641C-0.376906 44.9404 -0.369906 31.2188 0.417847 16.8809C0.463867 16.1043 1.08398 15.4881 1.85632 15.4424C18.9036 14.4144 29.2207 11.8327 38.3065 0.571289C38.5971 0.205848 39.0334 5.701e-05 39.4999 0ZM39.5077 26.6807C39.393 26.6654 39.1941 26.666 38.9188 26.666C37.328 26.666 33.2289 26.9247 29.4891 29.2773C23.5544 33.0159 22.3076 39.6251 22.3075 44.5059C22.3075 62.5746 38.001 73.8059 38.6669 74.2783C38.9192 74.4534 39.2171 74.5449 39.5077 74.5449C39.7982 74.5449 40.0962 74.4534 40.3485 74.2783V74.2715C41.0139 73.7994 56.7077 62.5602 56.7079 44.499C56.7079 27.5265 42.8728 26.666 40.0966 26.666C39.8213 26.666 39.6224 26.6807 39.5077 26.6807ZM132.272 21.168C136.112 21.168 139.64 21.7921 142.856 23.04C146.12 24.24 148.952 25.992 151.352 28.2959C153.8 30.5519 155.672 33.2404 156.968 36.3604C158.312 39.4323 158.984 42.8401 158.984 46.584C158.984 50.2799 158.312 53.6877 156.968 56.8076C155.672 59.9276 153.824 62.6161 151.424 64.8721C149.024 67.128 146.192 68.88 142.928 70.1279C139.712 71.3758 136.208 72 132.416 72H111.896V21.168H132.272ZM177.481 72H166.178V21.168H177.481V72ZM219.311 52.0713V21.168H230.615V72H222.335L198.575 41.5576V72H187.271V21.168H195.191L219.311 52.0713ZM123.2 62.0645H132.128C135.2 62.0645 137.888 61.4637 140.192 60.2637C142.496 59.0157 144.272 57.2161 145.52 54.8643C146.768 52.5123 147.392 49.7277 147.392 46.5117C147.392 43.296 146.744 40.5363 145.448 38.2324C144.2 35.9285 142.424 34.1523 140.12 32.9043C137.864 31.6563 135.2 31.0322 132.128 31.0322H123.2V62.0645Z" fill="url(#paint0_linear_10_101)"/>
<defs>
<linearGradient id="paint0_linear_10_101" x1="0.000124039" y1="17" x2="131.85" y2="71.8498" gradientUnits="userSpaceOnUse">
<stop stop-color="#86D99C"/>
<stop offset="1" stop-color="#00B1B8"/>
</linearGradient>
</defs>
</svg>
