<svg width="24" height="24" viewBox="0 0 24 24" fill="none" xmlns="http://www.w3.org/2000/svg">
<g clip-path="url(#clip0_12_86)">
<rect width="24" height="24" rx="8" fill="#231815"/>
<path d="M13.6975 8.78517H12.2105C11.0797 8.47211 11.4734 6.64574 12.2105 6.64574H14.3457V4H12.4137C11.5493 4 10.3116 4.45659 9.61733 5.61163C8.60104 7.30351 9.28035 9.20446 9.28035 9.20446H9.28356C7.61364 9.98428 6.5 11.7847 6.5 13.9874C6.5 16.9925 8.49727 19.0912 11.3568 19.0912C12.2693 19.0912 13.0353 18.5781 13.6964 17.9012V18.811H16.2382V14.1671C16.2542 14.0461 16.2639 13.9162 16.2639 13.776V8.78517H13.6964H13.6975ZM11.3568 16.3788C9.57882 16.3788 9.06747 15.0893 9.06747 13.9874C9.06747 12.7543 9.74463 11.4965 11.1931 11.4965H13.6975V13.7749C13.6975 14.8621 13.0492 16.3788 11.3579 16.3788H11.3568Z" fill="#BFF009"/>
</g>
<defs>
<clipPath id="clip0_12_86">
<rect width="24" height="24" fill="white"/>
</clipPath>
</defs>
</svg>
