<svg width="24" height="24" viewBox="0 0 24 24" fill="none" xmlns="http://www.w3.org/2000/svg">
<g clip-path="url(#clip0_12_115)">
<rect width="24" height="24" rx="8" fill="#F3F4F6"/>
<path d="M11.5532 8.27687C11.891 8.06969 12.3265 8.1866 12.5259 8.53761C12.7251 8.88855 12.6135 9.34106 12.2759 9.54835L10.2896 10.7661V15.8687L14.439 18.4068L18.5796 15.8687V10.7544L16.7505 9.56495C16.4182 9.34878 16.3172 8.89386 16.5249 8.54835C16.7329 8.20273 17.1718 8.09779 17.5044 8.31398L19.6665 9.71925C19.8741 9.85417 20.0005 10.0908 20.0005 10.3452V16.2905C20.0005 16.5518 19.8674 16.7935 19.6509 16.9263L14.7993 19.8989C14.577 20.0351 14.3011 20.0359 14.0786 19.8999L9.21924 16.9263C9.00239 16.7936 8.86866 16.552 8.86865 16.2905V10.3452C8.86865 10.0841 9.00186 9.84225 9.21826 9.70949L11.5532 8.27687ZM9.54443 4.09035C9.77799 3.96687 10.0632 3.97053 10.2935 4.10206L15.4546 7.05031C15.6848 7.182 15.8256 7.42152 15.8257 7.68019V13.5679C15.8257 13.8274 15.6839 14.0673 15.4526 14.1987L12.7612 15.7261C12.4007 15.9307 11.9368 15.8148 11.7251 15.4663C11.5135 15.1178 11.6345 14.6692 11.9946 14.4644L14.312 13.1489V8.09816L9.90869 5.58253L5.51318 8.09816V13.188L7.43311 14.4966C7.77482 14.7295 7.8566 15.1867 7.61572 15.5171C7.37491 15.8474 6.90273 15.9265 6.56104 15.6939L4.31982 14.1665C4.11865 14.0294 3.99953 13.8059 3.99951 13.5679V7.68019C3.99962 7.42159 4.14045 7.18203 4.37061 7.05031L9.52197 4.10206L9.54443 4.09035Z" fill="#838383"/>
</g>
<defs>
<clipPath id="clip0_12_115">
<rect width="24" height="24" fill="white"/>
</clipPath>
</defs>
</svg>
