<?xml version="1.0" encoding="UTF-8"?>
<svg id="_레이어_2" data-name="레이어 2" xmlns="http://www.w3.org/2000/svg" viewBox="0 0 91.28 133.53">
  <defs>
    <style>
      .cls-1 {
        fill: #ffffff;
      }
    </style>
  </defs>
  <g id="_레이어_1-2" data-name="레이어 1">
    <path class="cls-1" d="M67.28,42.34h-13.9c-10.57-2.77-6.89-18.93,0-18.93h19.96V0h-18.06c-8.08,0-19.65,4.04-26.14,14.26-9.5,14.97-3.15,31.79-3.15,31.79h.03C10.41,52.95,0,68.88,0,88.37c0,26.59,18.67,45.16,45.4,45.16,8.53,0,15.69-4.54,21.87-10.53v8.05h23.76v-41.09c.15-1.07.24-2.22.24-3.46v-44.16h-24ZM45.4,109.53c-16.62,0-21.4-11.41-21.4-21.16,0-10.91,6.33-22.04,19.87-22.04h23.41v20.16c0,9.62-6.06,23.04-21.87,23.04Z"/>
  </g>
</svg>